<mxfile host="app.diagrams.net" modified="2023-03-29T20:05:38.661Z" agent="Mozilla/5.0 (Windows NT 10.0; Win64; x64; rv:105.0) Gecko/20100101 Firefox/105.0" etag="P3TRt1-ZymsjEjby7D7C" version="21.1.1" type="device">
  <diagram name="Page-1" id="_Cx4gyT4o_TlKI2gqJLs">
    <mxGraphModel dx="2243" dy="695" grid="1" gridSize="10" guides="1" tooltips="1" connect="1" arrows="1" fold="1" page="1" pageScale="1" pageWidth="850" pageHeight="1100" math="0" shadow="0">
      <root>
        <mxCell id="0" />
        <mxCell id="1" parent="0" />
        <mxCell id="tL8RwAd3ebQlgqP70sX--11" style="edgeStyle=orthogonalEdgeStyle;rounded=0;orthogonalLoop=1;jettySize=auto;html=1;exitX=0.5;exitY=1;exitDx=0;exitDy=0;entryX=0.5;entryY=0;entryDx=0;entryDy=0;" edge="1" parent="1" source="VbnGthJ0AUMWmYDecoh1-1" target="VbnGthJ0AUMWmYDecoh1-4">
          <mxGeometry relative="1" as="geometry" />
        </mxCell>
        <mxCell id="tL8RwAd3ebQlgqP70sX--6" value="" style="rounded=1;whiteSpace=wrap;html=1;fillColor=#b1ddf0;strokeColor=#10739e;" vertex="1" parent="1">
          <mxGeometry x="335" y="40" width="170" height="80" as="geometry" />
        </mxCell>
        <mxCell id="tL8RwAd3ebQlgqP70sX--4" value="" style="rounded=1;whiteSpace=wrap;html=1;fillColor=#b1ddf0;strokeColor=#10739e;" vertex="1" parent="1">
          <mxGeometry x="75" y="40" width="210" height="80" as="geometry" />
        </mxCell>
        <mxCell id="VbnGthJ0AUMWmYDecoh1-1" value="{Movies, about, writing, /, writers, Two, of, my, favourites, are, Secret, Window, and, Stranger, Than, Fiction, ..., PAD, PAD,..}" style="text;whiteSpace=wrap;html=1;fontStyle=3;fillColor=none;strokeColor=#82b366;rounded=0;dashed=1;" parent="1" vertex="1">
          <mxGeometry x="82.5" y="45" width="195" height="70" as="geometry" />
        </mxCell>
        <mxCell id="tL8RwAd3ebQlgqP70sX--10" style="edgeStyle=orthogonalEdgeStyle;rounded=0;orthogonalLoop=1;jettySize=auto;html=1;exitX=0.5;exitY=1;exitDx=0;exitDy=0;entryX=0.5;entryY=0;entryDx=0;entryDy=0;" edge="1" parent="1" source="VbnGthJ0AUMWmYDecoh1-2" target="VbnGthJ0AUMWmYDecoh1-7">
          <mxGeometry relative="1" as="geometry" />
        </mxCell>
        <mxCell id="VbnGthJ0AUMWmYDecoh1-2" value="â€œ{{f&lt;sub&gt;01&lt;/sub&gt;, f&lt;sub&gt;02&lt;/sub&gt;, f&lt;sub&gt;03&lt;/sub&gt;, ..., f&lt;sub&gt;0 40&lt;/sub&gt;}, {f&lt;sub&gt;11&lt;/sub&gt;, f&lt;sub&gt;12&lt;/sub&gt;, f&lt;sub&gt;13&lt;/sub&gt;, ..., f&lt;sub&gt;1 40&lt;/sub&gt;},{f&lt;sub&gt;21&lt;/sub&gt;, f&lt;sub&gt;22&lt;/sub&gt;, f&lt;sub&gt;23&lt;/sub&gt;, ..., f&lt;sub&gt;2 40&lt;/sub&gt;},...}" style="text;whiteSpace=wrap;html=1;fontStyle=3;rounded=0;fillColor=none;strokeColor=#82b366;dashed=1;" parent="1" vertex="1">
          <mxGeometry x="338.75" y="45" width="162.5" height="75" as="geometry" />
        </mxCell>
        <mxCell id="VbnGthJ0AUMWmYDecoh1-26" style="edgeStyle=orthogonalEdgeStyle;orthogonalLoop=1;jettySize=auto;html=1;exitX=0.5;exitY=1;exitDx=0;exitDy=0;entryX=0.5;entryY=0;entryDx=0;entryDy=0;" parent="1" source="VbnGthJ0AUMWmYDecoh1-4" target="VbnGthJ0AUMWmYDecoh1-15" edge="1">
          <mxGeometry relative="1" as="geometry">
            <mxPoint x="179.66666666666674" y="270" as="targetPoint" />
          </mxGeometry>
        </mxCell>
        <mxCell id="VbnGthJ0AUMWmYDecoh1-4" value="" style="rounded=0;whiteSpace=wrap;html=1;fillColor=#f8cecc;strokeColor=#b85450;align=left;" parent="1" vertex="1">
          <mxGeometry x="80" y="150" width="200" height="70" as="geometry" />
        </mxCell>
        <mxCell id="VbnGthJ0AUMWmYDecoh1-5" value="&lt;div style=&quot;font-size: 11px;&quot;&gt;&lt;font style=&quot;font-size: 11px;&quot;&gt;In: (None, 300)&lt;/font&gt;&lt;/div&gt;&lt;div style=&quot;font-size: 11px;&quot;&gt;Out: (None, 300)&lt;br style=&quot;font-size: 11px;&quot;&gt;&lt;/div&gt;" style="rounded=0;whiteSpace=wrap;html=1;fontSize=11;" parent="1" vertex="1">
          <mxGeometry x="170" y="160" width="100" height="50" as="geometry" />
        </mxCell>
        <mxCell id="VbnGthJ0AUMWmYDecoh1-6" value="Input layer (tokens)" style="text;html=1;strokeColor=none;fillColor=none;align=center;verticalAlign=middle;whiteSpace=wrap;rounded=0;fontStyle=3;fontSize=11;" parent="1" vertex="1">
          <mxGeometry x="90" y="167.5" width="70" height="35" as="geometry" />
        </mxCell>
        <mxCell id="tL8RwAd3ebQlgqP70sX--12" style="edgeStyle=orthogonalEdgeStyle;rounded=0;orthogonalLoop=1;jettySize=auto;html=1;exitX=0.5;exitY=1;exitDx=0;exitDy=0;" edge="1" parent="1" source="VbnGthJ0AUMWmYDecoh1-7">
          <mxGeometry relative="1" as="geometry">
            <mxPoint x="422.304347826087" y="250" as="targetPoint" />
          </mxGeometry>
        </mxCell>
        <mxCell id="VbnGthJ0AUMWmYDecoh1-7" value="" style="rounded=0;whiteSpace=wrap;html=1;fillColor=#f8cecc;strokeColor=#b85450;align=left;" parent="1" vertex="1">
          <mxGeometry x="322.5" y="150" width="200" height="70" as="geometry" />
        </mxCell>
        <mxCell id="VbnGthJ0AUMWmYDecoh1-8" value="Input layer (features)" style="text;html=1;strokeColor=none;fillColor=none;align=center;verticalAlign=middle;whiteSpace=wrap;rounded=0;fontStyle=3;fontSize=11;" parent="1" vertex="1">
          <mxGeometry x="325" y="167.5" width="60" height="35" as="geometry" />
        </mxCell>
        <mxCell id="VbnGthJ0AUMWmYDecoh1-9" value="&lt;div style=&quot;font-size: 11px;&quot;&gt;&lt;font style=&quot;font-size: 11px;&quot;&gt;In: (None, 300, 40)&lt;/font&gt;&lt;/div&gt;&lt;div style=&quot;font-size: 11px;&quot;&gt;Out: (None, 300, 40)&lt;br style=&quot;font-size: 11px;&quot;&gt;&lt;/div&gt;" style="rounded=0;whiteSpace=wrap;html=1;fontSize=11;" parent="1" vertex="1">
          <mxGeometry x="390" y="160" width="120" height="50" as="geometry" />
        </mxCell>
        <mxCell id="VbnGthJ0AUMWmYDecoh1-30" style="edgeStyle=orthogonalEdgeStyle;orthogonalLoop=1;jettySize=auto;html=1;exitX=0.25;exitY=1;exitDx=0;exitDy=0;entryX=0.5;entryY=0;entryDx=0;entryDy=0;" parent="1" source="VbnGthJ0AUMWmYDecoh1-10" target="VbnGthJ0AUMWmYDecoh1-18" edge="1">
          <mxGeometry relative="1" as="geometry">
            <mxPoint x="310" y="440" as="targetPoint" />
          </mxGeometry>
        </mxCell>
        <mxCell id="VbnGthJ0AUMWmYDecoh1-10" value="" style="rounded=0;whiteSpace=wrap;html=1;fillColor=#ffe6cc;strokeColor=#d79b00;" parent="1" vertex="1">
          <mxGeometry x="322.5" y="251.25" width="195" height="70" as="geometry" />
        </mxCell>
        <mxCell id="VbnGthJ0AUMWmYDecoh1-11" value="&lt;div style=&quot;font-size: 11px;&quot;&gt;&lt;font style=&quot;font-size: 11px;&quot;&gt;In: (None, 300, 40)&lt;/font&gt;&lt;/div&gt;&lt;div style=&quot;font-size: 11px;&quot;&gt;Out: (None, 300, 40)&lt;br style=&quot;font-size: 11px;&quot;&gt;&lt;/div&gt;" style="rounded=0;whiteSpace=wrap;html=1;fontSize=11;" parent="1" vertex="1">
          <mxGeometry x="390" y="262.5" width="120" height="50" as="geometry" />
        </mxCell>
        <mxCell id="VbnGthJ0AUMWmYDecoh1-12" value="Dense layer" style="text;html=1;strokeColor=none;fillColor=none;align=center;verticalAlign=middle;whiteSpace=wrap;rounded=0;fontStyle=3;fontSize=11;" parent="1" vertex="1">
          <mxGeometry x="325" y="268.75" width="60" height="35" as="geometry" />
        </mxCell>
        <mxCell id="VbnGthJ0AUMWmYDecoh1-29" style="edgeStyle=orthogonalEdgeStyle;orthogonalLoop=1;jettySize=auto;html=1;exitX=0.75;exitY=1;exitDx=0;exitDy=0;entryX=0.5;entryY=0;entryDx=0;entryDy=0;" parent="1" source="VbnGthJ0AUMWmYDecoh1-15" target="VbnGthJ0AUMWmYDecoh1-18" edge="1">
          <mxGeometry relative="1" as="geometry" />
        </mxCell>
        <mxCell id="VbnGthJ0AUMWmYDecoh1-15" value="" style="rounded=0;whiteSpace=wrap;html=1;fillColor=#dae8fc;strokeColor=#6c8ebf;" parent="1" vertex="1">
          <mxGeometry x="80" y="251.25" width="200" height="70" as="geometry" />
        </mxCell>
        <mxCell id="VbnGthJ0AUMWmYDecoh1-16" value="Lambda layer (wraps ELMO model)" style="text;html=1;strokeColor=none;fillColor=none;align=center;verticalAlign=middle;whiteSpace=wrap;rounded=0;fontStyle=3;fontSize=11;" parent="1" vertex="1">
          <mxGeometry x="90" y="260" width="60" height="52.5" as="geometry" />
        </mxCell>
        <mxCell id="VbnGthJ0AUMWmYDecoh1-17" value="&lt;div style=&quot;font-size: 11px;&quot;&gt;&lt;font style=&quot;font-size: 11px;&quot;&gt;In: (None, 300)&lt;/font&gt;&lt;/div&gt;&lt;div style=&quot;font-size: 11px;&quot;&gt;Out: (32, None, 1024)&lt;br style=&quot;font-size: 11px;&quot;&gt;&lt;/div&gt;" style="rounded=0;whiteSpace=wrap;html=1;fontSize=11;align=center;" parent="1" vertex="1">
          <mxGeometry x="160" y="261.25" width="110" height="50" as="geometry" />
        </mxCell>
        <mxCell id="VbnGthJ0AUMWmYDecoh1-34" style="edgeStyle=orthogonalEdgeStyle;orthogonalLoop=1;jettySize=auto;html=1;exitX=0.5;exitY=1;exitDx=0;exitDy=0;entryX=0.489;entryY=0;entryDx=0;entryDy=0;entryPerimeter=0;" parent="1" source="VbnGthJ0AUMWmYDecoh1-18" target="VbnGthJ0AUMWmYDecoh1-31" edge="1">
          <mxGeometry relative="1" as="geometry">
            <mxPoint x="300.20000000000005" y="570" as="targetPoint" />
          </mxGeometry>
        </mxCell>
        <mxCell id="VbnGthJ0AUMWmYDecoh1-18" value="" style="rounded=0;whiteSpace=wrap;html=1;fillColor=#e1d5e7;strokeColor=#9673a6;" parent="1" vertex="1">
          <mxGeometry x="190" y="390" width="220" height="80" as="geometry" />
        </mxCell>
        <mxCell id="VbnGthJ0AUMWmYDecoh1-19" value="Concatenation layer" style="text;html=1;strokeColor=none;fillColor=none;align=center;verticalAlign=middle;whiteSpace=wrap;rounded=0;fontStyle=3;fontSize=11;" parent="1" vertex="1">
          <mxGeometry x="200" y="403.75" width="70" height="52.5" as="geometry" />
        </mxCell>
        <mxCell id="VbnGthJ0AUMWmYDecoh1-20" value="&lt;div style=&quot;font-size: 11px;&quot;&gt;In: [(32, None, 1024), &lt;br&gt;&lt;/div&gt;&lt;div style=&quot;font-size: 11px;&quot;&gt;(None, 300, 40)]&lt;br&gt;&lt;/div&gt;&lt;div style=&quot;font-size: 11px;&quot;&gt;Out: (32, 300, 1064)&lt;br style=&quot;font-size: 11px;&quot;&gt;&lt;/div&gt;" style="rounded=0;whiteSpace=wrap;html=1;fontSize=11;" parent="1" vertex="1">
          <mxGeometry x="277.5" y="400" width="120" height="60" as="geometry" />
        </mxCell>
        <mxCell id="VbnGthJ0AUMWmYDecoh1-40" style="edgeStyle=orthogonalEdgeStyle;orthogonalLoop=1;jettySize=auto;html=1;exitX=0.5;exitY=1;exitDx=0;exitDy=0;entryX=0.5;entryY=0;entryDx=0;entryDy=0;" parent="1" source="VbnGthJ0AUMWmYDecoh1-31" target="VbnGthJ0AUMWmYDecoh1-35" edge="1">
          <mxGeometry relative="1" as="geometry" />
        </mxCell>
        <mxCell id="VbnGthJ0AUMWmYDecoh1-31" value="" style="rounded=0;whiteSpace=wrap;html=1;fillColor=#fff2cc;strokeColor=#d6b656;" parent="1" vertex="1">
          <mxGeometry x="195" y="501.25" width="215" height="70" as="geometry" />
        </mxCell>
        <mxCell id="VbnGthJ0AUMWmYDecoh1-32" value="Spatial dropout layer" style="text;html=1;strokeColor=none;fillColor=none;align=center;verticalAlign=middle;whiteSpace=wrap;rounded=0;fontStyle=3;fontSize=11;" parent="1" vertex="1">
          <mxGeometry x="200" y="510" width="70" height="52.5" as="geometry" />
        </mxCell>
        <mxCell id="VbnGthJ0AUMWmYDecoh1-33" value="&lt;div style=&quot;font-size: 11px;&quot;&gt;In: (32, 300, 1064)&lt;br style=&quot;font-size: 11px;&quot;&gt;&lt;/div&gt;&lt;div style=&quot;font-size: 11px;&quot;&gt;Out: (32, 300, 1064)&lt;br style=&quot;font-size: 11px;&quot;&gt;&lt;/div&gt;" style="rounded=0;whiteSpace=wrap;html=1;fontSize=11;" parent="1" vertex="1">
          <mxGeometry x="280" y="510" width="120" height="50" as="geometry" />
        </mxCell>
        <mxCell id="VbnGthJ0AUMWmYDecoh1-44" style="edgeStyle=orthogonalEdgeStyle;orthogonalLoop=1;jettySize=auto;html=1;exitX=0.5;exitY=1;exitDx=0;exitDy=0;entryX=0.5;entryY=0;entryDx=0;entryDy=0;" parent="1" source="VbnGthJ0AUMWmYDecoh1-35" target="VbnGthJ0AUMWmYDecoh1-41" edge="1">
          <mxGeometry relative="1" as="geometry" />
        </mxCell>
        <mxCell id="VbnGthJ0AUMWmYDecoh1-35" value="" style="rounded=0;whiteSpace=wrap;html=1;fillColor=#d5e8d4;strokeColor=#82b366;" parent="1" vertex="1">
          <mxGeometry x="195" y="600" width="215" height="70" as="geometry" />
        </mxCell>
        <mxCell id="VbnGthJ0AUMWmYDecoh1-36" value="Bi-LSTM layer" style="text;html=1;strokeColor=none;fillColor=none;align=center;verticalAlign=middle;whiteSpace=wrap;rounded=0;fontStyle=3;fontSize=11;" parent="1" vertex="1">
          <mxGeometry x="200" y="610" width="80" height="52.5" as="geometry" />
        </mxCell>
        <mxCell id="VbnGthJ0AUMWmYDecoh1-37" style="edgeStyle=orthogonalEdgeStyle;orthogonalLoop=1;jettySize=auto;html=1;exitX=0.5;exitY=1;exitDx=0;exitDy=0;" parent="1" source="VbnGthJ0AUMWmYDecoh1-33" target="VbnGthJ0AUMWmYDecoh1-33" edge="1">
          <mxGeometry relative="1" as="geometry" />
        </mxCell>
        <mxCell id="VbnGthJ0AUMWmYDecoh1-39" value="&lt;div style=&quot;font-size: 11px;&quot;&gt;In: (32, 300, 1064)&lt;br style=&quot;font-size: 11px;&quot;&gt;&lt;/div&gt;&lt;div style=&quot;font-size: 11px;&quot;&gt;Out: (32, 300, 1024)&lt;br style=&quot;font-size: 11px;&quot;&gt;&lt;/div&gt;" style="rounded=0;whiteSpace=wrap;html=1;fontSize=11;" parent="1" vertex="1">
          <mxGeometry x="285" y="610" width="120" height="50" as="geometry" />
        </mxCell>
        <mxCell id="VbnGthJ0AUMWmYDecoh1-41" value="" style="rounded=0;whiteSpace=wrap;html=1;fillColor=#ffe6cc;strokeColor=#d79b00;" parent="1" vertex="1">
          <mxGeometry x="195" y="700" width="215" height="70" as="geometry" />
        </mxCell>
        <mxCell id="VbnGthJ0AUMWmYDecoh1-42" value="Dense layer" style="text;html=1;strokeColor=none;fillColor=none;align=center;verticalAlign=middle;whiteSpace=wrap;rounded=0;fontStyle=3;fontSize=11;" parent="1" vertex="1">
          <mxGeometry x="202.5" y="707.5" width="65" height="52.5" as="geometry" />
        </mxCell>
        <mxCell id="VbnGthJ0AUMWmYDecoh1-43" value="&lt;div style=&quot;font-size: 11px;&quot;&gt;Input: (32, 300, 1024)&lt;br style=&quot;font-size: 11px;&quot;&gt;&lt;/div&gt;&lt;div style=&quot;font-size: 11px;&quot;&gt;Output: (32, 300, 17)&lt;br style=&quot;font-size: 11px;&quot;&gt;&lt;/div&gt;" style="rounded=0;whiteSpace=wrap;html=1;fontSize=11;" parent="1" vertex="1">
          <mxGeometry x="277.5" y="710" width="120" height="50" as="geometry" />
        </mxCell>
        <mxCell id="tL8RwAd3ebQlgqP70sX--14" value="" style="shape=curlyBracket;whiteSpace=wrap;html=1;rounded=1;flipH=1;labelPosition=right;verticalLabelPosition=middle;align=left;verticalAlign=middle;direction=west;" vertex="1" parent="1">
          <mxGeometry x="20" y="35" width="20" height="90" as="geometry" />
        </mxCell>
        <mxCell id="tL8RwAd3ebQlgqP70sX--15" value="Inputs: list of tokenized sentences, and list&amp;nbsp; of lists of features, for every token" style="text;html=1;strokeColor=none;fillColor=none;align=center;verticalAlign=middle;whiteSpace=wrap;rounded=0;fontStyle=1;fontSize=10;rotation=0;" vertex="1" parent="1">
          <mxGeometry x="-110" y="45" width="120" height="75" as="geometry" />
        </mxCell>
      </root>
    </mxGraphModel>
  </diagram>
</mxfile>
